<svg xmlns="http://www.w3.org/2000/svg" viewBox="0 0 16 16" fill="none"><defs><clipPath id="a"><rect width="16" height="16" rx="3"/></clipPath><radialGradient id="b" cx=".5" cy=".5" r=".7071"><stop offset=".5" stop-color="#fafafa"/><stop offset="1" stop-color="#18181b"/></radialGradient></defs><g clip-path="url(#a)"><path d="M0 0h16v16H0z" fill="#fafafa"/><path d="M0 0h16v4H0z" fill="#dc2626"/><path d="M0 12h16v4H0z" fill="#059669"/><path d="m2.7261 11 1.278-6.012h4.329l-.261 1.251h-2.88l-.225 1.044h2.88l-.261 1.251h-2.88L4.1751 11h-1.449Zm3.4463 0 2.97-3.204-1.395-2.808h1.539l.864 1.719 1.584-1.719h1.89l-2.808 3.033L12.3014 11h-1.557l-.945-1.89L8.0714 11h-1.899Z" fill="#18181b"/><path d="M0 0h16v16H0z" fill="url(#b)" opacity=".1" style="mix-blend-mode:multiply"/><rect width="16" height="16" rx="3" stroke="#18181b" stroke-width="2" opacity=".1" style="mix-blend-mode:color-burn"/></g></svg>
